<svg width="17" height="12" viewBox="0 0 17 12" fill="none" xmlns="http://www.w3.org/2000/svg">
<path fill-rule="evenodd" clip-rule="evenodd" d="M2 7.00293C2.55228 7.00293 3 7.45064 3 8.00293V10.0029C3 10.5552 2.55228 11.0029 2 11.0029H1C0.447715 11.0029 0 10.5552 0 10.0029V8.00293C0 7.45064 0.447715 7.00293 1 7.00293H2ZM6.66602 5.00293C7.2183 5.00293 7.66602 5.45064 7.66602 6.00293V10.0029C7.66602 10.5552 7.2183 11.0029 6.66602 11.0029H5.66602C5.11373 11.0029 4.66602 10.5552 4.66602 10.0029V6.00293C4.66602 5.45064 5.11373 5.00293 5.66602 5.00293H6.66602ZM11.334 2.66895C11.8863 2.66895 12.334 3.11666 12.334 3.66895V10.0023C12.334 10.5546 11.8863 11.0023 11.334 11.0023H10.334C9.7817 11.0023 9.33398 10.5546 9.33398 10.0023V3.66895C9.33398 3.11666 9.7817 2.66895 10.334 2.66895H11.334ZM16 0.335938C16.5523 0.335937 17 0.783653 17 1.33594V10.0026C17 10.5549 16.5523 11.0026 16 11.0026H15C14.4477 11.0026 14 10.5549 14 10.0026V1.33594C14 0.783653 14.4477 0.335938 15 0.335938H16Z" fill="#FAFBFD"/>
</svg>
