<svg width="16" height="11" viewBox="0 0 16 11" fill="none" xmlns="http://www.w3.org/2000/svg">
<path fill-rule="evenodd" clip-rule="evenodd" d="M13.6438 4.67028C13.7652 4.78852 13.9593 4.78703 14.0789 4.66693L15.2395 3.4966C15.3 3.43569 15.3338 3.35318 15.3333 3.26733C15.3328 3.18148 15.2981 3.09937 15.2368 3.03917C11.0049 -1.01306 4.32857 -1.01306 0.0966565 3.03917C0.0353544 3.09933 0.000572274 3.18141 6.99859e-06 3.26726C-0.000558277 3.35311 0.0331399 3.43565 0.0936446 3.4966L1.25459 4.66693C1.37409 4.78721 1.56831 4.7887 1.68965 4.67028C3.30221 3.13859 5.44212 2.28447 7.66707 2.28448C9.8918 2.28457 12.0315 3.13869 13.6438 4.67028ZM10.9741 7.36543C11.0967 7.48177 11.2897 7.47925 11.4092 7.35974L12.5685 6.18941C12.6295 6.12802 12.6634 6.04475 12.6625 5.95821C12.6616 5.87168 12.6261 5.7891 12.5638 5.72897C9.80462 3.16456 5.53171 3.16456 2.77255 5.72897C2.71022 5.7891 2.67466 5.87172 2.67384 5.95828C2.67302 6.04484 2.70702 6.12811 2.76819 6.18941L3.92713 7.35974C4.0466 7.47925 4.23964 7.48177 4.36219 7.36543C5.26766 6.54619 6.44545 6.09228 7.66699 6.09177C8.88934 6.0917 10.0681 6.54565 10.9741 7.36543ZM9.98843 8.65413C9.98666 8.56736 9.94913 8.48515 9.88469 8.42694C8.60403 7.34467 6.72839 7.34467 5.44773 8.42694C5.38325 8.48511 5.34566 8.56728 5.34382 8.65406C5.34198 8.74084 5.37607 8.82453 5.43802 8.88537L7.44366 10.9074C7.50244 10.9668 7.58259 11.0002 7.66621 11.0002C7.74983 11.0002 7.82998 10.9668 7.88876 10.9074L9.89406 8.88537C9.95606 8.82458 9.99021 8.74091 9.98843 8.65413Z" fill="#FAFBFD"/>
</svg>
